<!-- Generated by IcoMoon.io -->
<svg version="1.1" xmlns="http://www.w3.org/2000/svg" width="64" height="32" viewBox="0 0 64 32">
<title>instagram</title>
<path fill="#afb1b8" d="M4.262 1.254c-0.010-0.227-0.046-0.383-0.099-0.518-0.057-0.148-0.141-0.274-0.247-0.378l-0-0c-0.104-0.106-0.23-0.189-0.37-0.244l-0.007-0.002c-0.136-0.052-0.291-0.089-0.518-0.099-0.228-0.011-0.301-0.013-0.88-0.013s-0.652 0.003-0.879 0.013c-0.227 0.010-0.383 0.046-0.517 0.099-0.148 0.057-0.275 0.141-0.379 0.247l-0 0c-0.106 0.104-0.189 0.23-0.243 0.37l-0.002 0.007c-0.053 0.136-0.089 0.291-0.099 0.518-0.011 0.228-0.013 0.301-0.013 0.88s0.003 0.652 0.013 0.879c0.010 0.227 0.047 0.382 0.099 0.518 0.057 0.148 0.141 0.274 0.246 0.378l0 0c0.107 0.108 0.236 0.192 0.378 0.246 0.136 0.053 0.291 0.089 0.518 0.099 0.228 0.010 0.3 0.013 0.879 0.013s0.652-0.003 0.879-0.013c0.227-0.010 0.382-0.046 0.518-0.099 0.288-0.113 0.511-0.337 0.622-0.617l0.003-0.007c0.052-0.136 0.089-0.291 0.099-0.518 0.010-0.228 0.012-0.3 0.012-0.879s-0.001-0.652-0.011-0.879zM3.878 2.996c-0.009 0.208-0.044 0.321-0.073 0.396-0.074 0.187-0.219 0.332-0.401 0.403l-0.005 0.002c-0.075 0.029-0.188 0.064-0.396 0.073-0.225 0.010-0.292 0.013-0.862 0.013s-0.638-0.003-0.862-0.013c-0.208-0.009-0.321-0.044-0.396-0.073-0.096-0.036-0.178-0.090-0.245-0.159l-0-0c-0.069-0.067-0.123-0.149-0.158-0.24l-0.002-0.005c-0.029-0.075-0.064-0.188-0.073-0.396-0.010-0.225-0.013-0.293-0.013-0.862s0.003-0.638 0.013-0.862c0.009-0.208 0.044-0.321 0.073-0.396 0.036-0.096 0.090-0.178 0.16-0.245l0-0c0.067-0.069 0.149-0.123 0.241-0.158l0.005-0.002c0.075-0.029 0.188-0.064 0.396-0.073 0.225-0.010 0.293-0.012 0.862-0.012s0.638 0.003 0.862 0.012c0.208 0.009 0.321 0.044 0.396 0.073 0.092 0.034 0.177 0.088 0.245 0.159 0.071 0.069 0.125 0.153 0.159 0.245 0.029 0.075 0.064 0.188 0.073 0.396 0.010 0.225 0.013 0.292 0.013 0.862s-0.003 0.636-0.013 0.861z"></path>
<path fill="#afb1b8" d="M2.141 1.038c-0.605 0-1.096 0.491-1.096 1.096v0c0.012 0.596 0.498 1.075 1.096 1.075s1.084-0.479 1.096-1.074l0-0.001c-0-0.605-0.491-1.096-1.096-1.096v0zM2.141 2.845c-0.393-0-0.711-0.318-0.711-0.711s0.318-0.711 0.711-0.711c0 0 0 0 0 0v0c0.393 0 0.711 0.318 0.711 0.711s-0.318 0.711-0.711 0.711v0zM3.537 0.994c0 0.141-0.115 0.256-0.256 0.256s-0.256-0.115-0.256-0.256v0c0-0.141 0.115-0.256 0.256-0.256s0.256 0.115 0.256 0.256v0z"></path>
</svg>
