<!-- Generated by IcoMoon.io -->
<svg version="1.1" xmlns="http://www.w3.org/2000/svg" width="64" height="32" viewBox="0 0 64 32">
<title>linkedin</title>
<path fill="#afb1b8" d="M4.266 4.267h0.001v-1.565c0-0.765-0.165-1.355-1.060-1.355-0.43 0-0.719 0.236-0.837 0.46h-0.012v-0.388h-0.849v2.848h0.884v-1.41c0-0.371 0.070-0.731 0.53-0.731 0.453 0 0.46 0.424 0.46 0.754v1.387h0.883zM0.070 1.418h0.885v2.849h-0.885v-2.849zM0.512 0c-0.283 0-0.512 0.229-0.512 0.512v0c0 0.283 0.23 0.517 0.512 0.517s0.512-0.234 0.512-0.517c-0-0.283-0.229-0.512-0.512-0.512h-0z"></path>
</svg>
