<!-- Generated by IcoMoon.io -->
<svg version="1.1" xmlns="http://www.w3.org/2000/svg" width="64" height="32" viewBox="0 0 64 32">
<title>twitter</title>
<path fill="#afb1b8" d="M4.267 0.597c-0.147 0.066-0.317 0.114-0.495 0.137l-0.009 0.001c0.181-0.109 0.318-0.277 0.383-0.477l0.002-0.006c-0.16 0.096-0.345 0.17-0.543 0.21l-0.011 0.002c-0.16-0.171-0.387-0.277-0.638-0.277-0.483 0-0.874 0.392-0.874 0.874 0 0 0 0 0 0v-0c0 0.069 0.006 0.136 0.020 0.199-0.727-0.035-1.371-0.384-1.803-0.915-0.075 0.127-0.12 0.279-0.12 0.442v0c0 0.303 0.156 0.572 0.388 0.727-0.145-0.004-0.281-0.043-0.399-0.11l0.004 0.002v0.010c0.001 0.422 0.298 0.774 0.695 0.858l0.006 0.001c-0.067 0.018-0.143 0.029-0.222 0.029-0.002 0-0.005 0-0.007-0h0c-0.056 0-0.112-0.003-0.166-0.015 0.113 0.346 0.435 0.601 0.817 0.609-0.295 0.233-0.673 0.373-1.083 0.373-0.001 0-0.001 0-0.002 0h0c-0.002 0-0.005 0-0.008 0-0.071 0-0.141-0.005-0.209-0.013l0.008 0.001c0.377 0.246 0.838 0.393 1.334 0.393 0.003 0 0.006 0 0.008 0h-0c1.61 0 2.49-1.333 2.49-2.489 0-0.038-0.001-0.076-0.003-0.113 0.173-0.125 0.319-0.275 0.434-0.447l0.004-0.006z"></path>
</svg>
