<svg aria-hidden="true" xmlns="http://www.w3.org/2000/svg"><defs>
<symbol id="icon-facebook"><path d="M2.844.708h.39V.03A4.88 4.88 0 0 0 2.686 0h-.021.001c-.562 0-.947.353-.947 1.003V1.6h-.62v.758h.62v1.908h.76V2.358h.595l.095-.758H2.48v-.523c0-.219.059-.369.365-.369z"/></symbol>
<symbol id="icon-instagram"><path d="M4.262 1.254a1.548 1.548 0 0 0-.099-.518 1.056 1.056 0 0 0-.247-.378 1.061 1.061 0 0 0-.37-.244L3.539.112a1.58 1.58 0 0 0-.518-.099C2.793.002 2.72 0 2.141 0s-.652.003-.879.013C1.035.023.879.059.745.112a1.06 1.06 0 0 0-.379.247C.26.463.177.589.123.729L.121.736a1.553 1.553 0 0 0-.099.518c-.011.228-.013.301-.013.88s.003.652.013.879c.01.227.047.382.099.518.057.148.141.274.246.378.107.108.236.192.378.246.136.053.291.089.518.099.228.01.3.013.879.013s.652-.003.879-.013c.227-.01.382-.046.518-.099.288-.113.511-.337.622-.617l.003-.007a1.58 1.58 0 0 0 .099-.518c.01-.228.012-.3.012-.879s-.001-.652-.011-.879zm-.384 1.742a1.174 1.174 0 0 1-.073.396.71.71 0 0 1-.401.403l-.005.002a1.174 1.174 0 0 1-.396.073c-.225.01-.292.013-.862.013s-.638-.003-.862-.013a1.174 1.174 0 0 1-.396-.073.662.662 0 0 1-.245-.159.67.67 0 0 1-.158-.24l-.002-.005a1.174 1.174 0 0 1-.073-.396c-.01-.225-.013-.293-.013-.862s.003-.638.013-.862C.414 1.065.449.952.478.877a.652.652 0 0 1 .16-.245.665.665 0 0 1 .241-.158L.884.472c.075-.029.188-.064.396-.073.225-.01.293-.012.862-.012s.638.003.862.012c.208.009.321.044.396.073a.653.653 0 0 1 .245.159.661.661 0 0 1 .159.245c.029.075.064.188.073.396.01.225.013.292.013.862s-.003.636-.013.861z"/><path d="M2.141 1.038c-.605 0-1.096.491-1.096 1.096a1.097 1.097 0 0 0 2.192.001v-.001c0-.605-.491-1.096-1.096-1.096zm0 1.807a.71.71 0 1 1 0-1.422.71.71 0 1 1 0 1.422zM3.537.994a.256.256 0 0 1-.512 0 .256.256 0 0 1 .512 0z"/></symbol>
<symbol id="icon-linkedin"><path d="M4.266 4.267h.001V2.702c0-.765-.165-1.355-1.06-1.355-.43 0-.719.236-.837.46h-.012v-.388h-.849v2.848h.884v-1.41c0-.371.07-.731.53-.731.453 0 .46.424.46.754v1.387h.883zM.07 1.418h.885v2.849H.07V1.418zM.512 0A.512.512 0 0 0 0 .512c0 .283.23.517.512.517s.512-.234.512-.517A.512.512 0 0 0 .512 0z"/></symbol><symbol id="icon-twitter"><path d="M4.267.597a1.777 1.777 0 0 1-.495.137l-.009.001a.874.874 0 0 0 .383-.477l.002-.006c-.16.096-.345.17-.543.21l-.011.002a.874.874 0 0 0-1.512.597.92.92 0 0 0 .02.199A2.474 2.474 0 0 1 .299.345a.876.876 0 0 0 .268 1.169.853.853 0 0 1-.399-.11l.004.002v.01a.878.878 0 0 0 .695.858l.006.001a.864.864 0 0 1-.222.029H.644a.766.766 0 0 1-.166-.015.883.883 0 0 0 .817.609 1.744 1.744 0 0 1-1.083.373h-.01a1.79 1.79 0 0 1-.209-.013l.008.001a2.44 2.44 0 0 0 1.334.393h.008c1.61 0 2.49-1.333 2.49-2.489 0-.038-.001-.076-.003-.113.173-.125.319-.275.434-.447l.004-.006z"/></symbol></defs></svg>